<svg width="512" height="512" viewBox="0 0 512 512" fill="none" xmlns="http://www.w3.org/2000/svg">
<rect width="512" height="512" rx="16" fill="#121525"/>
<path d="M65.9091 374V272.182H97.7273C103.428 272.182 108.3 273.226 112.344 275.314C116.42 277.369 119.536 280.335 121.69 284.213C123.878 288.058 124.972 292.665 124.972 298.034C124.972 302.011 124.358 305.674 123.132 309.021C121.939 312.369 120.182 315.186 117.862 317.473C115.542 319.727 112.741 321.268 109.46 322.097V322.494C113.139 322.793 116.454 324.069 119.403 326.322C122.353 328.576 124.673 331.559 126.364 335.271C128.087 338.983 128.949 343.209 128.949 347.949C128.949 353.186 127.839 357.759 125.618 361.67C123.43 365.581 120.249 368.614 116.072 370.768C111.929 372.923 106.941 374 101.108 374H65.9091ZM69.0909 370.818H101.108C108.565 370.818 114.531 368.73 119.006 364.554C123.513 360.345 125.767 354.81 125.767 347.949C125.767 343.242 124.706 339.083 122.585 335.47C120.464 331.857 117.547 329.024 113.835 326.969C110.156 324.914 105.914 323.886 101.108 323.886H69.0909V370.818ZM69.0909 320.705H101.108C105.748 320.705 109.593 319.661 112.642 317.572C115.691 315.484 117.978 312.717 119.503 309.27C121.027 305.823 121.79 302.078 121.79 298.034C121.79 290.809 119.635 285.224 115.327 281.28C111.018 277.336 105.152 275.364 97.7273 275.364H69.0909V320.705ZM153.21 374V297.636H156.392V309.767H156.79C158.58 305.79 161.513 302.608 165.589 300.222C169.699 297.835 174.389 296.642 179.659 296.642C180.057 296.642 180.322 296.642 180.455 296.642C180.587 296.642 180.852 296.642 181.25 296.642V299.824C180.852 299.824 180.587 299.824 180.455 299.824C180.322 299.824 180.057 299.824 179.659 299.824C175.152 299.824 171.141 300.802 167.628 302.757C164.148 304.713 161.397 307.414 159.375 310.861C157.386 314.308 156.392 318.252 156.392 322.693V374H153.21ZM199.135 374V297.636H202.317V374H199.135ZM200.726 283.716C199.864 283.716 199.119 283.401 198.489 282.771C197.859 282.142 197.544 281.396 197.544 280.534C197.544 279.672 197.859 278.927 198.489 278.297C199.119 277.667 199.864 277.352 200.726 277.352C201.588 277.352 202.334 277.667 202.963 278.297C203.593 278.927 203.908 279.672 203.908 280.534C203.908 281.396 203.593 282.142 202.963 282.771C202.334 283.401 201.588 283.716 200.726 283.716ZM254.631 375.591C248.598 375.591 243.378 373.867 238.97 370.42C234.562 366.94 231.165 362.217 228.778 356.251C226.392 350.286 225.199 343.541 225.199 336.017C225.199 328.527 226.409 321.798 228.828 315.832C231.248 309.866 234.661 305.143 239.07 301.663C243.478 298.183 248.665 296.443 254.631 296.443C258.674 296.443 262.403 297.288 265.817 298.979C269.231 300.636 272.197 303.022 274.716 306.138C277.235 309.22 279.157 312.883 280.483 317.125H280.881V272.182H284.062V374H280.881V354.909H280.483C279.091 359.118 277.152 362.781 274.666 365.896C272.18 368.979 269.231 371.365 265.817 373.055C262.436 374.746 258.707 375.591 254.631 375.591ZM254.631 372.409C260.033 372.409 264.69 370.818 268.601 367.636C272.545 364.421 275.578 360.08 277.699 354.611C279.82 349.109 280.881 342.911 280.881 336.017C280.881 329.123 279.804 322.942 277.649 317.473C275.528 311.971 272.495 307.629 268.551 304.447C264.64 301.232 260 299.625 254.631 299.625C249.261 299.625 244.605 301.232 240.661 304.447C236.75 307.629 233.717 311.971 231.562 317.473C229.441 322.942 228.381 329.123 228.381 336.017C228.381 342.911 229.441 349.109 231.562 354.611C233.684 360.08 236.7 364.421 240.611 367.636C244.555 370.818 249.228 372.409 254.631 372.409ZM339.297 404.227C335.021 404.227 331.077 403.647 327.464 402.487C323.852 401.36 320.736 399.653 318.118 397.366C315.5 395.113 313.544 392.295 312.251 388.915L315.234 387.722C316.394 390.705 318.118 393.174 320.405 395.129C322.725 397.118 325.492 398.593 328.707 399.554C331.955 400.548 335.485 401.045 339.297 401.045C347.251 401.045 353.449 398.941 357.891 394.732C362.332 390.555 364.553 384.175 364.553 375.591V354.909H364.155C362.829 359.152 360.857 362.698 358.239 365.548C355.62 368.366 352.588 370.487 349.141 371.912C345.694 373.304 342.081 374 338.303 374C332.337 374 327.15 372.393 322.741 369.178C318.333 365.963 314.92 361.505 312.5 355.804C310.08 350.103 308.871 343.508 308.871 336.017C308.871 328.46 310.064 321.699 312.45 315.733C314.837 309.767 318.234 305.061 322.642 301.614C327.05 298.167 332.27 296.443 338.303 296.443C342.412 296.443 346.158 297.288 349.538 298.979C352.919 300.636 355.852 303.022 358.338 306.138C360.824 309.22 362.763 312.883 364.155 317.125H364.553V297.636H367.734V375.591C367.734 381.855 366.591 387.108 364.304 391.351C362.017 395.626 358.752 398.841 354.51 400.996C350.268 403.15 345.196 404.227 339.297 404.227ZM338.303 370.818C343.606 370.818 348.213 369.41 352.124 366.592C356.068 363.775 359.117 359.765 361.271 354.561C363.459 349.324 364.553 343.143 364.553 336.017C364.553 329.123 363.492 322.942 361.371 317.473C359.25 311.971 356.217 307.629 352.273 304.447C348.362 301.232 343.705 299.625 338.303 299.625C332.9 299.625 328.227 301.232 324.283 304.447C320.372 307.629 317.356 311.971 315.234 317.473C313.113 322.942 312.053 329.123 312.053 336.017C312.053 342.911 313.113 348.976 315.234 354.213C317.389 359.417 320.421 363.493 324.332 366.443C328.277 369.36 332.933 370.818 338.303 370.818ZM423.839 375.591C417.177 375.591 411.344 373.851 406.339 370.371C401.367 366.891 397.506 362.168 394.755 356.202C392.004 350.236 390.629 343.508 390.629 336.017C390.629 328.527 392.004 321.798 394.755 315.832C397.539 309.866 401.317 305.143 406.09 301.663C410.863 298.183 416.249 296.443 422.248 296.443C426.689 296.443 430.799 297.388 434.577 299.277C438.389 301.166 441.703 303.785 444.521 307.132C447.338 310.48 449.525 314.341 451.083 318.716C452.674 323.058 453.469 327.698 453.469 332.636V335.818H392.219V332.636H450.288C450.288 326.505 449.028 320.953 446.509 315.982C443.99 310.977 440.61 307 436.367 304.05C432.125 301.1 427.418 299.625 422.248 299.625C417.011 299.625 412.272 301.183 408.029 304.298C403.787 307.414 400.389 311.656 397.837 317.026C395.285 322.395 393.943 328.46 393.81 335.222V335.619C393.81 342.281 394.97 348.413 397.29 354.014C399.644 359.582 403.058 364.04 407.532 367.388C412.006 370.735 417.442 372.409 423.839 372.409C428.545 372.409 432.489 371.58 435.671 369.923C438.886 368.266 441.455 366.36 443.377 364.206C445.333 362.052 446.774 360.212 447.702 358.688L450.288 360.477C449.161 362.4 447.47 364.537 445.217 366.891C442.963 369.244 440.079 371.282 436.566 373.006C433.053 374.729 428.81 375.591 423.839 375.591Z" fill="white"/>
<path d="M67.8494 240V138.182H135.264V155.93H89.3764V180.192H130.79V197.94H89.3764V240H67.8494ZM170.525 138.182V240H149.346V138.182H170.525ZM209.266 241.442C204.394 241.442 200.052 240.597 196.241 238.906C192.429 237.183 189.413 234.647 187.192 231.3C185.005 227.919 183.911 223.71 183.911 218.672C183.911 214.429 184.69 210.866 186.248 207.983C187.806 205.099 189.927 202.779 192.612 201.023C195.296 199.266 198.345 197.94 201.759 197.045C205.206 196.151 208.819 195.521 212.597 195.156C217.039 194.692 220.618 194.261 223.336 193.864C226.054 193.433 228.026 192.803 229.252 191.974C230.478 191.146 231.092 189.92 231.092 188.295V187.997C231.092 184.848 230.097 182.412 228.109 180.689C226.153 178.965 223.369 178.104 219.756 178.104C215.945 178.104 212.912 178.949 210.658 180.639C208.405 182.296 206.913 184.384 206.184 186.903L186.596 185.312C187.59 180.672 189.546 176.662 192.462 173.281C195.379 169.867 199.141 167.249 203.748 165.426C208.388 163.57 213.757 162.642 219.856 162.642C224.098 162.642 228.158 163.139 232.036 164.134C235.947 165.128 239.411 166.669 242.427 168.757C245.476 170.845 247.879 173.53 249.636 176.811C251.392 180.059 252.271 183.954 252.271 188.494V240H232.185V229.411H231.589C230.362 231.797 228.722 233.902 226.667 235.724C224.612 237.514 222.143 238.923 219.259 239.95C216.376 240.945 213.045 241.442 209.266 241.442ZM215.332 226.825C218.447 226.825 221.198 226.212 223.585 224.986C225.971 223.726 227.844 222.036 229.202 219.915C230.561 217.794 231.241 215.391 231.241 212.706V204.602C230.578 205.033 229.666 205.431 228.506 205.795C227.38 206.127 226.103 206.442 224.678 206.74C223.253 207.005 221.828 207.254 220.403 207.486C218.978 207.685 217.685 207.867 216.525 208.033C214.039 208.397 211.868 208.977 210.012 209.773C208.156 210.568 206.714 211.645 205.687 213.004C204.659 214.33 204.146 215.987 204.146 217.976C204.146 220.859 205.19 223.063 207.278 224.588C209.399 226.08 212.084 226.825 215.332 226.825ZM303.105 270.227C296.244 270.227 290.361 269.283 285.456 267.393C280.584 265.537 276.706 263.002 273.822 259.787C270.939 256.572 269.066 252.959 268.205 248.949L287.793 246.314C288.389 247.839 289.334 249.264 290.626 250.589C291.919 251.915 293.626 252.976 295.747 253.771C297.902 254.6 300.52 255.014 303.602 255.014C308.209 255.014 312.004 253.887 314.987 251.634C318.003 249.413 319.511 245.684 319.511 240.447V226.477H318.616C317.688 228.598 316.296 230.604 314.44 232.493C312.584 234.382 310.198 235.923 307.281 237.116C304.365 238.31 300.884 238.906 296.841 238.906C291.107 238.906 285.887 237.58 281.18 234.929C276.507 232.244 272.778 228.151 269.994 222.649C267.243 217.114 265.868 210.121 265.868 201.669C265.868 193.018 267.277 185.793 270.094 179.993C272.911 174.193 276.656 169.851 281.33 166.967C286.036 164.084 291.19 162.642 296.791 162.642C301.067 162.642 304.646 163.371 307.53 164.83C310.413 166.255 312.733 168.045 314.49 170.199C316.28 172.32 317.655 174.408 318.616 176.463H319.412V163.636H340.442V240.746C340.442 247.242 338.851 252.678 335.669 257.053C332.487 261.428 328.079 264.709 322.445 266.896C316.843 269.117 310.397 270.227 303.105 270.227ZM303.553 222.997C306.966 222.997 309.85 222.152 312.203 220.462C314.589 218.738 316.412 216.286 317.672 213.104C318.964 209.889 319.611 206.044 319.611 201.57C319.611 197.095 318.981 193.217 317.722 189.936C316.462 186.622 314.639 184.053 312.253 182.23C309.866 180.407 306.966 179.496 303.553 179.496C300.072 179.496 297.139 180.44 294.753 182.33C292.366 184.186 290.56 186.771 289.334 190.085C288.107 193.4 287.494 197.228 287.494 201.57C287.494 205.978 288.107 209.789 289.334 213.004C290.593 216.186 292.4 218.655 294.753 220.412C297.139 222.135 300.072 222.997 303.553 222.997Z" fill="white"/>
</svg>
