<svg width="512" height="140" viewBox="0 0 512 140" fill="none" xmlns="http://www.w3.org/2000/svg">
<rect width="512" height="140" rx="16" fill="#121525"/>
<path d="M35.6889 102V36.5455H79.027V47.9553H49.5277V63.5518H76.1506V74.9616H49.5277V102H35.6889ZM101.695 36.5455V102H88.0797V36.5455H101.695ZM126.6 102.927C123.468 102.927 120.676 102.384 118.226 101.297C115.776 100.189 113.837 98.5589 112.409 96.407C111.003 94.2337 110.3 91.5277 110.3 88.2891C110.3 85.5618 110.801 83.2713 111.802 81.4176C112.804 79.5639 114.167 78.0724 115.893 76.9432C117.619 75.8139 119.579 74.9616 121.774 74.3864C123.99 73.8111 126.312 73.4062 128.741 73.1719C131.596 72.8736 133.897 72.5966 135.645 72.3409C137.392 72.0639 138.659 71.6591 139.448 71.1264C140.236 70.5937 140.63 69.8054 140.63 68.7614V68.5696C140.63 66.5455 139.991 64.9794 138.713 63.8714C137.456 62.7635 135.666 62.2095 133.343 62.2095C130.893 62.2095 128.944 62.7528 127.495 63.8395C126.046 64.9048 125.087 66.2472 124.618 67.8665L112.026 66.8438C112.665 63.8608 113.922 61.2827 115.797 59.1094C117.672 56.9148 120.091 55.2315 123.052 54.0597C126.035 52.8665 129.487 52.2699 133.407 52.2699C136.135 52.2699 138.745 52.5895 141.238 53.2287C143.752 53.8679 145.978 54.8587 147.917 56.201C149.877 57.5433 151.422 59.2692 152.551 61.3786C153.681 63.4666 154.245 65.9702 154.245 68.8892V102H141.333V95.1925H140.95C140.162 96.7266 139.107 98.0795 137.786 99.2514C136.465 100.402 134.877 101.308 133.024 101.968C131.17 102.607 129.029 102.927 126.6 102.927ZM130.499 93.5305C132.502 93.5305 134.27 93.1364 135.804 92.348C137.338 91.5384 138.542 90.4517 139.416 89.0881C140.289 87.7244 140.726 86.1797 140.726 84.4538V79.2443C140.3 79.5213 139.714 79.777 138.968 80.0114C138.244 80.2244 137.424 80.4268 136.507 80.6186C135.591 80.7891 134.675 80.9489 133.759 81.098C132.843 81.2259 132.012 81.343 131.266 81.4496C129.668 81.6839 128.272 82.0568 127.079 82.5682C125.886 83.0795 124.959 83.772 124.299 84.6456C123.638 85.4979 123.308 86.5632 123.308 87.8416C123.308 89.6953 123.979 91.1122 125.321 92.0923C126.685 93.0511 128.411 93.5305 130.499 93.5305ZM186.925 121.432C182.514 121.432 178.732 120.825 175.579 119.61C172.447 118.417 169.954 116.787 168.1 114.72C166.246 112.653 165.043 110.331 164.489 107.753L177.081 106.059C177.464 107.039 178.072 107.955 178.903 108.808C179.734 109.66 180.831 110.342 182.195 110.853C183.58 111.386 185.263 111.652 187.244 111.652C190.206 111.652 192.646 110.928 194.563 109.479C196.502 108.051 197.472 105.654 197.472 102.288V93.3068H196.896C196.3 94.6705 195.405 95.9595 194.212 97.174C193.018 98.3885 191.484 99.3793 189.609 100.146C187.734 100.913 185.497 101.297 182.898 101.297C179.212 101.297 175.856 100.445 172.83 98.7401C169.826 97.0142 167.429 94.3828 165.639 90.8459C163.871 87.2876 162.987 82.7919 162.987 77.3587C162.987 71.7976 163.892 67.1527 165.703 63.424C167.514 59.6953 169.922 56.9041 172.926 55.0504C175.952 53.1967 179.265 52.2699 182.866 52.2699C185.614 52.2699 187.915 52.7386 189.769 53.6761C191.623 54.5923 193.114 55.7429 194.244 57.1278C195.394 58.4915 196.278 59.8338 196.896 61.1548H197.408V52.9091H210.927V102.479C210.927 106.656 209.904 110.15 207.859 112.962C205.813 115.775 202.979 117.884 199.357 119.29C195.756 120.718 191.612 121.432 186.925 121.432ZM187.212 91.0696C189.407 91.0696 191.261 90.5263 192.773 89.4396C194.308 88.3317 195.479 86.755 196.289 84.7095C197.12 82.6428 197.536 80.1712 197.536 77.2947C197.536 74.4183 197.131 71.9254 196.321 69.8161C195.511 67.6854 194.339 66.0341 192.805 64.8622C191.271 63.6903 189.407 63.1044 187.212 63.1044C184.975 63.1044 183.089 63.7116 181.555 64.9261C180.021 66.1193 178.86 67.7812 178.072 69.9119C177.283 72.0426 176.889 74.5035 176.889 77.2947C176.889 80.1286 177.283 82.5788 178.072 84.6456C178.881 86.6911 180.043 88.2784 181.555 89.4077C183.089 90.5156 184.975 91.0696 187.212 91.0696ZM226.555 102V36.5455H247.01C250.675 36.5455 253.807 37.2166 256.406 38.5589C259.027 39.88 261.03 41.7869 262.415 44.2798C263.821 46.7514 264.524 49.7131 264.524 53.1648C264.524 55.7216 264.13 58.076 263.342 60.228C262.575 62.38 261.445 64.191 259.954 65.6612C258.462 67.1101 256.662 68.1009 254.553 68.6335V68.8892C256.918 69.081 259.048 69.9013 260.945 71.3501C262.841 72.799 264.332 74.7166 265.419 77.103C266.527 79.4893 267.081 82.206 267.081 85.2528C267.081 88.6193 266.367 91.5597 264.94 94.0739C263.533 96.5881 261.488 98.5376 258.803 99.9226C256.14 101.308 252.933 102 249.183 102H226.555ZM228.601 99.9545H249.183C253.977 99.9545 257.813 98.6122 260.689 95.9276C263.587 93.2216 265.036 89.6634 265.036 85.2528C265.036 82.2273 264.354 79.5533 262.99 77.2308C261.626 74.9084 259.751 73.0866 257.365 71.7656C255 70.4446 252.273 69.7841 249.183 69.7841H228.601V99.9545ZM228.601 67.7386H249.183C252.166 67.7386 254.638 67.0675 256.598 65.7251C258.558 64.3828 260.028 62.6037 261.009 60.3878C261.989 58.1719 262.479 55.7642 262.479 53.1648C262.479 48.5199 261.094 44.9297 258.324 42.3942C255.554 39.8587 251.783 38.5909 247.01 38.5909H228.601V67.7386ZM282.678 102V52.9091H284.723V60.7074H284.979C286.129 58.1506 288.015 56.1051 290.636 54.571C293.278 53.0369 296.293 52.2699 299.68 52.2699C299.936 52.2699 300.107 52.2699 300.192 52.2699C300.277 52.2699 300.447 52.2699 300.703 52.2699V54.3153C300.447 54.3153 300.277 54.3153 300.192 54.3153C300.107 54.3153 299.936 54.3153 299.68 54.3153C296.783 54.3153 294.205 54.9439 291.946 56.201C289.709 57.4581 287.94 59.1946 286.641 61.4105C285.362 63.6264 284.723 66.1619 284.723 69.017V102H282.678ZM312.201 102V52.9091H314.246V102H312.201ZM313.224 43.9602C312.67 43.9602 312.19 43.7578 311.785 43.353C311.381 42.9482 311.178 42.4687 311.178 41.9148C311.178 41.3608 311.381 40.8814 311.785 40.4766C312.19 40.0717 312.67 39.8693 313.224 39.8693C313.778 39.8693 314.257 40.0717 314.662 40.4766C315.067 40.8814 315.269 41.3608 315.269 41.9148C315.269 42.4687 315.067 42.9482 314.662 43.353C314.257 43.7578 313.778 43.9602 313.224 43.9602ZM347.876 103.023C343.999 103.023 340.643 101.915 337.809 99.6989C334.975 97.4616 332.791 94.4254 331.257 90.5902C329.723 86.755 328.956 82.419 328.956 77.5824C328.956 72.767 329.734 68.4418 331.289 64.6065C332.844 60.7713 335.039 57.7351 337.873 55.4979C340.707 53.2607 344.041 52.142 347.876 52.142C350.476 52.142 352.873 52.6854 355.067 53.772C357.262 54.8374 359.169 56.3714 360.788 58.3743C362.408 60.3558 363.643 62.7102 364.496 65.4375H364.751V36.5455H366.797V102H364.751V89.7273H364.496C363.601 92.4332 362.354 94.7876 360.756 96.7905C359.158 98.772 357.262 100.306 355.067 101.393C352.894 102.479 350.497 103.023 347.876 103.023ZM347.876 100.977C351.349 100.977 354.343 99.9545 356.857 97.9091C359.393 95.8423 361.342 93.0511 362.706 89.5355C364.07 85.9986 364.751 82.0142 364.751 77.5824C364.751 73.1506 364.059 69.1768 362.674 65.6612C361.31 62.1243 359.361 59.3331 356.825 57.2876C354.311 55.2209 351.328 54.1875 347.876 54.1875C344.425 54.1875 341.431 55.2209 338.896 57.2876C336.381 59.3331 334.432 62.1243 333.047 65.6612C331.683 69.1768 331.001 73.1506 331.001 77.5824C331.001 82.0142 331.683 85.9986 333.047 89.5355C334.411 93.0511 336.349 95.8423 338.864 97.9091C341.399 99.9545 344.403 100.977 347.876 100.977ZM402.305 121.432C399.556 121.432 397.021 121.059 394.698 120.313C392.376 119.589 390.373 118.491 388.69 117.021C387.006 115.572 385.749 113.761 384.918 111.588L386.836 110.821C387.582 112.739 388.69 114.326 390.16 115.583C391.651 116.862 393.43 117.81 395.497 118.428C397.585 119.067 399.854 119.386 402.305 119.386C407.418 119.386 411.403 118.033 414.258 115.327C417.113 112.643 418.54 108.541 418.54 103.023V89.7273H418.285C417.433 92.4545 416.165 94.7344 414.482 96.5668C412.798 98.3778 410.849 99.7415 408.633 100.658C406.417 101.553 404.094 102 401.665 102C397.83 102 394.496 100.967 391.662 98.8999C388.828 96.8331 386.634 93.9673 385.078 90.3026C383.523 86.6378 382.745 82.3977 382.745 77.5824C382.745 72.7244 383.512 68.3778 385.046 64.5426C386.58 60.7074 388.764 57.6818 391.598 55.4659C394.432 53.25 397.788 52.142 401.665 52.142C404.308 52.142 406.715 52.6854 408.888 53.772C411.062 54.8374 412.947 56.3714 414.545 58.3743C416.143 60.3558 417.39 62.7102 418.285 65.4375H418.54V52.9091H420.586V103.023C420.586 107.05 419.851 110.427 418.381 113.154C416.911 115.903 414.812 117.969 412.085 119.354C409.357 120.739 406.097 121.432 402.305 121.432ZM401.665 99.9545C405.075 99.9545 408.036 99.049 410.55 97.2379C413.086 95.4268 415.046 92.8487 416.431 89.5036C417.837 86.1371 418.54 82.1634 418.54 77.5824C418.54 73.1506 417.859 69.1768 416.495 65.6612C415.131 62.1243 413.182 59.3331 410.646 57.2876C408.132 55.2209 405.138 54.1875 401.665 54.1875C398.192 54.1875 395.188 55.2209 392.653 57.2876C390.138 59.3331 388.2 62.1243 386.836 65.6612C385.472 69.1768 384.79 73.1506 384.79 77.5824C384.79 82.0142 385.472 85.9134 386.836 89.2798C388.221 92.625 390.17 95.2457 392.685 97.142C395.22 99.017 398.214 99.9545 401.665 99.9545ZM456.653 103.023C452.37 103.023 448.62 101.904 445.403 99.6669C442.207 97.4297 439.725 94.3935 437.956 90.5582C436.188 86.723 435.304 82.3977 435.304 77.5824C435.304 72.767 436.188 68.4418 437.956 64.6065C439.746 60.7713 442.175 57.7351 445.243 55.4979C448.311 53.2607 451.774 52.142 455.63 52.142C458.485 52.142 461.127 52.7493 463.556 53.9638C466.007 55.1783 468.137 56.8615 469.949 59.0135C471.76 61.1655 473.166 63.6477 474.167 66.4602C475.19 69.2514 475.701 72.2344 475.701 75.4091V77.4545H436.326V75.4091H473.656C473.656 71.4673 472.846 67.8984 471.227 64.7024C469.608 61.4851 467.434 58.9283 464.707 57.032C461.98 55.1357 458.954 54.1875 455.63 54.1875C452.264 54.1875 449.217 55.1889 446.49 57.1918C443.762 59.1946 441.578 61.9219 439.938 65.3736C438.297 68.8253 437.434 72.7244 437.349 77.071V77.3267C437.349 81.6094 438.095 85.5511 439.586 89.152C441.099 92.7315 443.294 95.5973 446.17 97.7493C449.047 99.9013 452.541 100.977 456.653 100.977C459.679 100.977 462.214 100.445 464.26 99.3793C466.326 98.3139 467.978 97.0888 469.213 95.7038C470.471 94.3189 471.397 93.1364 471.994 92.1562L473.656 93.3068C472.931 94.5426 471.845 95.9169 470.396 97.4297C468.947 98.9425 467.093 100.253 464.835 101.361C462.576 102.469 459.849 103.023 456.653 103.023Z" fill="white"/>
</svg>
